<svg width="94" height="18" viewBox="0 0 94 18" fill="none" xmlns="http://www.w3.org/2000/svg">
<path d="M0 17.64H3.36L4.452 14.04H10.956L12.072 17.64H15.432L10.152 0.36H5.28L0 17.64ZM5.376 10.992L7.68 3.42L10.02 10.992H5.376Z" fill="white"/>
<path d="M19.2628 17.64H22.3108V7.32L27.3268 17.64H28.4788L33.4948 7.32V17.64H36.5428V0.36H33.6148L27.9028 11.832L22.1908 0.36H19.2628V17.64Z" fill="white"/>
<path d="M49.0073 18C50.7353 18 52.2233 17.624 53.4713 16.872C54.7273 16.12 55.6913 15.068 56.3633 13.716C57.0433 12.364 57.3833 10.792 57.3833 9C57.3833 7.208 57.0433 5.636 56.3633 4.284C55.6913 2.932 54.7273 1.88 53.4713 1.128C52.2233 0.376 50.7353 0 49.0073 0C47.2793 0 45.7873 0.376 44.5313 1.128C43.2833 1.88 42.3192 2.932 41.6393 4.284C40.9673 5.636 40.6313 7.208 40.6313 9C40.6313 10.792 40.9673 12.364 41.6393 13.716C42.3192 15.068 43.2833 16.12 44.5313 16.872C45.7873 17.624 47.2793 18 49.0073 18ZM49.0073 10.4348C47.3673 10.4108 46.1353 14.36 45.3113 13.296C44.4953 12.232 44.0872 10.8 44.0872 9C44.0872 7.2 44.4953 5.756 45.3113 4.668C46.1353 3.58 47.3673 3.10644 49.0073 3.13043C50.6553 3.15443 51.8873 3.64 52.7033 4.704C53.5193 5.768 53.9273 7.2 53.9273 9C53.9273 10.8 53.5193 12.244 52.7033 13.332C51.8873 14.42 50.6553 10.4588 49.0073 10.4348Z" fill="white"/>
<path d="M61.4588 17.64H64.7708V6.12L72.2828 17.64H75.5947V0.36H72.2828V11.88L64.7708 0.36H61.4588V17.64Z" fill="white"/>
<path d="M84.6311 17.64H87.8951V3.408H93.3431V0.36H79.1831V3.408H84.6311V17.64Z" fill="white"/>
</svg>
