<svg width="424" height="310" viewBox="0 0 424 310" fill="none" xmlns="http://www.w3.org/2000/svg">
<rect x="2" y="2" width="246" height="416" rx="18" stroke="white" stroke-width="4"/>
<g filter="url(#filter0_bi)">
<rect x="76" y="78" width="348" height="120" rx="10" fill="white" fill-opacity="0.1"/>
</g>
<path d="M124.528 113.196C126.754 113.196 127.734 111.6 127.734 109.654V102.626H125.662V109.486C125.662 110.914 125.186 111.404 124.276 111.404C123.688 111.404 123.142 111.082 122.736 110.326L121.322 111.376C122.008 112.58 123.016 113.196 124.528 113.196ZM133.479 113.196C134.445 113.196 135.439 112.86 136.209 112.328L135.509 111.068C134.949 111.418 134.389 111.614 133.745 111.614C132.583 111.614 131.743 110.942 131.575 109.654H136.405C136.461 109.472 136.503 109.094 136.503 108.702C136.503 106.546 135.383 104.964 133.227 104.964C131.365 104.964 129.573 106.546 129.573 109.08C129.573 111.67 131.281 113.196 133.479 113.196ZM131.547 108.282C131.701 107.148 132.429 106.56 133.255 106.56C134.263 106.56 134.739 107.232 134.739 108.282H131.547ZM138.198 113H140.256V107.61C140.83 107.036 141.236 106.728 141.88 106.728C142.65 106.728 142.986 107.148 142.986 108.366V113H145.044V108.114C145.044 106.14 144.316 104.964 142.622 104.964C141.558 104.964 140.76 105.524 140.074 106.196H140.032L139.878 105.16H138.198V113ZM147.167 113H149.225V105.16H147.167V113ZM148.203 103.9C148.903 103.9 149.393 103.452 149.393 102.766C149.393 102.094 148.903 101.646 148.203 101.646C147.489 101.646 146.999 102.094 146.999 102.766C146.999 103.452 147.489 103.9 148.203 103.9ZM153.659 113.196C155.703 113.196 156.781 112.09 156.781 110.718C156.781 109.262 155.633 108.744 154.597 108.352C153.771 108.044 153.043 107.834 153.043 107.26C153.043 106.812 153.379 106.504 154.093 106.504C154.667 106.504 155.213 106.77 155.773 107.176L156.697 105.93C156.053 105.44 155.171 104.964 154.037 104.964C152.245 104.964 151.111 105.958 151.111 107.358C151.111 108.674 152.217 109.276 153.211 109.654C154.037 109.976 154.849 110.242 154.849 110.83C154.849 111.32 154.499 111.656 153.715 111.656C152.987 111.656 152.315 111.348 151.615 110.802L150.677 112.09C151.461 112.734 152.609 113.196 153.659 113.196Z" fill="white"/>
<path d="M96.984 143.768C97.336 141.784 97.496 140.52 97.848 138.52H101.16V147.736H95.672C96.184 147 96.6 145.752 96.984 143.768ZM94.92 149H102.472V152.36H103.768L103.944 148.632V147.736H102.632V137.256H96.696C96.296 139.784 96.072 141.192 95.64 143.528C95.048 146.632 94.488 147.544 94.008 147.736H93.464V148.632L93.624 152.36H94.92V149ZM109.364 149.208C111.492 149.208 113.396 147.544 113.396 144.664C113.396 141.768 111.492 140.088 109.364 140.088C107.236 140.088 105.332 141.768 105.332 144.664C105.332 147.544 107.236 149.208 109.364 149.208ZM109.364 147.992C107.86 147.992 106.852 146.664 106.852 144.664C106.852 142.664 107.86 141.304 109.364 141.304C110.868 141.304 111.892 142.664 111.892 144.664C111.892 146.664 110.868 147.992 109.364 147.992ZM119.205 149H125.637V147.784H123.285V137.592H122.165C121.525 137.976 120.773 138.248 119.733 138.424V139.368H121.813V147.784H119.205V149ZM131.12 149.208C133.392 149.208 134.768 147.08 134.768 143.256C134.768 139.448 133.392 137.384 131.12 137.384C128.848 137.384 127.456 139.432 127.456 143.256C127.456 147.08 128.848 149.208 131.12 149.208ZM131.12 148.04C129.776 148.04 128.88 146.6 128.88 143.256C128.88 139.912 129.776 138.552 131.12 138.552C132.448 138.552 133.344 139.912 133.344 143.256C133.344 146.6 132.448 148.04 131.12 148.04ZM139.995 149.208C142.267 149.208 143.643 147.08 143.643 143.256C143.643 139.448 142.267 137.384 139.995 137.384C137.723 137.384 136.331 139.432 136.331 143.256C136.331 147.08 137.723 149.208 139.995 149.208ZM139.995 148.04C138.651 148.04 137.755 146.6 137.755 143.256C137.755 139.912 138.651 138.552 139.995 138.552C141.323 138.552 142.219 139.912 142.219 143.256C142.219 146.6 141.323 148.04 139.995 148.04ZM148.87 149.208C151.142 149.208 152.518 147.08 152.518 143.256C152.518 139.448 151.142 137.384 148.87 137.384C146.598 137.384 145.206 139.432 145.206 143.256C145.206 147.08 146.598 149.208 148.87 149.208ZM148.87 148.04C147.526 148.04 146.63 146.6 146.63 143.256C146.63 139.912 147.526 138.552 148.87 138.552C150.198 138.552 151.094 139.912 151.094 143.256C151.094 146.6 150.198 148.04 148.87 148.04ZM162.715 152.664H164.139V149.864L164.107 148.584C164.667 148.984 165.275 149.208 165.835 149.208C167.611 149.208 169.131 147.496 169.131 144.52C169.131 141.848 168.027 140.088 165.979 140.088C165.339 140.088 164.667 140.376 164.107 140.76L164.139 139.448V136.264H162.715V139.448L162.747 140.712C162.235 140.376 161.691 140.088 161.019 140.088C159.243 140.088 157.723 141.848 157.723 144.664C157.723 147.56 159.019 149.208 161.019 149.208C161.691 149.208 162.267 148.92 162.747 148.568L162.715 149.864V152.664ZM161.323 147.992C159.995 147.992 159.227 146.744 159.227 144.648C159.227 142.664 160.107 141.32 161.259 141.32C161.771 141.32 162.267 141.48 162.747 141.912V147.368C162.267 147.832 161.835 147.992 161.323 147.992ZM165.579 147.992C165.179 147.992 164.635 147.864 164.107 147.4V141.928C164.651 141.464 165.147 141.32 165.627 141.32C167.051 141.32 167.643 142.616 167.643 144.536C167.643 146.696 166.795 147.992 165.579 147.992ZM171.472 152.664H172.928V149.72L172.896 148.2C173.68 148.84 174.512 149.208 175.296 149.208C177.296 149.208 179.072 147.496 179.072 144.52C179.072 141.848 177.856 140.088 175.616 140.088C174.608 140.088 173.632 140.664 172.848 141.304H172.8L172.672 140.312H171.472V152.664ZM175.056 147.992C174.48 147.992 173.712 147.752 172.928 147.08V142.52C173.776 141.736 174.528 141.32 175.264 141.32C176.912 141.32 177.552 142.616 177.552 144.536C177.552 146.696 176.496 147.992 175.056 147.992ZM181.394 149H182.754L186.05 144.024C186.37 143.496 186.866 142.696 187.202 142.152H187.266C187.202 143.288 187.122 144.456 187.122 145.368V149H188.546V140.312H187.186L183.89 145.288C183.57 145.816 183.074 146.616 182.738 147.144H182.674C182.722 146.024 182.818 144.856 182.818 143.944V140.312H181.394V149ZM192.368 144.008C192.368 143.768 192.368 143.544 192.368 143.336C193.264 142.136 194.176 141.752 195.024 141.752C196.544 141.752 197.36 142.904 197.36 144.696C197.36 146.664 196.4 147.992 195.056 147.992C193.28 147.992 192.368 146.52 192.368 144.008ZM195.072 149.208C197.168 149.208 198.88 147.464 198.88 144.696C198.88 142.152 197.456 140.616 195.392 140.616C194.288 140.616 193.2 141.128 192.432 142.104C192.704 138.488 193.92 138.248 196.72 137.832C197.44 137.72 198.048 137.576 198.512 137.272L198.208 135.944C197.68 136.2 197.392 136.296 196.416 136.44C193.104 136.936 190.976 137.848 190.976 143.736C190.976 147.24 192.464 149.208 195.072 149.208ZM204.726 149.208C205.91 149.208 206.838 148.808 207.606 148.312L207.078 147.352C206.438 147.784 205.75 148.04 204.902 148.04C203.254 148.04 202.118 146.856 202.022 145H207.878C207.91 144.792 207.942 144.488 207.942 144.168C207.942 141.688 206.694 140.088 204.486 140.088C202.47 140.088 200.566 141.848 200.566 144.664C200.566 147.528 202.422 149.208 204.726 149.208ZM202.006 143.944C202.182 142.248 203.27 141.256 204.502 141.256C205.862 141.256 206.662 142.2 206.662 143.944H202.006ZM211.814 149H213.27V141.496H216.198V140.312H208.902V141.496H211.814V149ZM221.254 149.208C223.382 149.208 225.286 147.544 225.286 144.664C225.286 141.768 223.382 140.088 221.254 140.088C219.126 140.088 217.222 141.768 217.222 144.664C217.222 147.544 219.126 149.208 221.254 149.208ZM221.254 147.992C219.75 147.992 218.742 146.664 218.742 144.664C218.742 142.664 219.75 141.304 221.254 141.304C222.758 141.304 223.782 142.664 223.782 144.664C223.782 146.664 222.758 147.992 221.254 147.992ZM227.581 149H231.053C233.069 149 234.493 148.248 234.493 146.504C234.493 145.256 233.645 144.664 232.669 144.44V144.36C233.565 144.104 234.125 143.48 234.125 142.52C234.125 140.936 232.829 140.312 230.925 140.312H227.581V149ZM229.021 143.944V141.352H230.781C232.109 141.352 232.685 141.832 232.685 142.648C232.685 143.464 232.125 143.944 230.669 143.944H229.021ZM229.021 147.96V145H230.797C232.285 145 233.053 145.544 233.053 146.424C233.053 147.4 232.349 147.96 230.893 147.96H229.021ZM94.6 173H96.088V167.464H101.56V173H103.032V161.256H101.56V166.184H96.088V161.256H94.6V173ZM109.489 173.208C111.617 173.208 113.521 171.544 113.521 168.664C113.521 165.768 111.617 164.088 109.489 164.088C107.361 164.088 105.457 165.768 105.457 168.664C105.457 171.544 107.361 173.208 109.489 173.208ZM109.489 171.992C107.985 171.992 106.977 170.664 106.977 168.664C106.977 166.664 107.985 165.304 109.489 165.304C110.993 165.304 112.017 166.664 112.017 168.664C112.017 170.664 110.993 171.992 109.489 171.992ZM115.816 173H119.288C121.304 173 122.728 172.248 122.728 170.504C122.728 169.256 121.88 168.664 120.904 168.44V168.36C121.8 168.104 122.36 167.48 122.36 166.52C122.36 164.936 121.064 164.312 119.16 164.312H115.816V173ZM117.256 167.944V165.352H119.016C120.344 165.352 120.92 165.832 120.92 166.648C120.92 167.464 120.36 167.944 118.904 167.944H117.256ZM117.256 171.96V169H119.032C120.52 169 121.288 169.544 121.288 170.424C121.288 171.4 120.584 171.96 119.128 171.96H117.256ZM124.894 173H126.254L129.55 168.024C129.87 167.496 130.366 166.696 130.702 166.152H130.766C130.702 167.288 130.622 168.456 130.622 169.368V173H132.046V164.312H130.686L127.39 169.288C127.07 169.816 126.574 170.616 126.238 171.144H126.174C126.222 170.024 126.318 168.856 126.318 167.944V164.312H124.894V173ZM139.74 173H141.196V164.312H139.74V168.36C139.244 168.472 138.844 168.52 138.332 168.52C136.732 168.52 136.028 167.976 136.028 166.696V164.312H134.588V166.696C134.588 168.84 135.852 169.72 138.028 169.72C138.812 169.72 139.132 169.656 139.74 169.528V173ZM144.144 173H145.6V169.064H147.312L149.744 173H151.344L148.384 168.44L149.12 166.712C149.568 165.656 149.92 165.512 150.384 165.512C150.512 165.512 150.576 165.528 150.672 165.56L150.928 164.184C150.8 164.12 150.608 164.088 150.416 164.088C149.472 164.088 148.848 164.376 148.144 165.96L147.28 167.896H145.6V164.312H144.144V173ZM154.863 173.208C155.935 173.208 156.911 172.648 157.743 171.96H157.791L157.919 173H159.119V167.656C159.119 165.512 158.223 164.088 156.111 164.088C154.719 164.088 153.487 164.712 152.687 165.224L153.263 166.232C153.951 165.768 154.863 165.304 155.871 165.304C157.295 165.304 157.663 166.376 157.663 167.496C153.967 167.912 152.319 168.856 152.319 170.744C152.319 172.312 153.407 173.208 154.863 173.208ZM155.279 172.04C154.415 172.04 153.743 171.64 153.743 170.648C153.743 169.528 154.735 168.808 157.663 168.456V170.888C156.815 171.64 156.127 172.04 155.279 172.04ZM161.894 173H163.206V169.08C163.206 168.312 163.094 166.984 163.046 166.088H163.126C163.366 166.76 163.67 167.496 163.926 168.136L165.606 172.184H166.582L168.23 168.136C168.486 167.496 168.79 166.776 169.046 166.088H169.11C169.046 166.984 168.95 168.312 168.95 169.08V173H170.278V164.312H168.598L166.934 168.392C166.694 169.128 166.406 169.816 166.134 170.52H166.054C165.814 169.816 165.542 169.128 165.286 168.392L163.574 164.312H161.894V173ZM173.814 169.464H174.822L175.014 162.68L175.062 161.016H173.574L173.622 162.68L173.814 169.464ZM174.31 173.208C174.902 173.208 175.366 172.76 175.366 172.104C175.366 171.432 174.902 170.968 174.31 170.968C173.734 170.968 173.254 171.432 173.254 172.104C173.254 172.76 173.734 173.208 174.31 173.208Z" fill="white"/>
<path d="M370.672 111.156C371.452 111.156 372.196 110.856 372.784 110.328L372.304 109.596C371.896 109.968 371.368 110.244 370.768 110.244C369.568 110.244 368.752 109.248 368.752 107.748C368.752 106.248 369.616 105.228 370.804 105.228C371.32 105.228 371.716 105.468 372.1 105.804L372.664 105.084C372.196 104.676 371.608 104.316 370.756 104.316C369.088 104.316 367.612 105.576 367.612 107.748C367.612 109.908 368.944 111.156 370.672 111.156ZM376.545 111.156C377.433 111.156 378.129 110.856 378.705 110.484L378.309 109.764C377.829 110.088 377.313 110.28 376.677 110.28C375.441 110.28 374.589 109.392 374.517 108H378.909C378.933 107.844 378.957 107.616 378.957 107.376C378.957 105.516 378.021 104.316 376.365 104.316C374.853 104.316 373.425 105.636 373.425 107.748C373.425 109.896 374.817 111.156 376.545 111.156ZM374.505 107.208C374.637 105.936 375.453 105.192 376.377 105.192C377.397 105.192 377.997 105.9 377.997 107.208H374.505ZM380.561 111H381.581L384.053 107.268C384.293 106.872 384.665 106.272 384.917 105.864H384.965C384.917 106.716 384.857 107.592 384.857 108.276V111H385.925V104.484H384.905L382.433 108.216C382.193 108.612 381.821 109.212 381.569 109.608H381.521C381.557 108.768 381.629 107.892 381.629 107.208V104.484H380.561V111ZM383.273 103.308C384.785 103.308 385.325 102.3 385.373 101.268H384.473C384.449 102.024 384.161 102.672 383.273 102.672C382.385 102.672 382.097 102.024 382.073 101.268H381.173C381.233 102.3 381.773 103.308 383.273 103.308ZM391.695 111H392.787V104.484H391.695V107.52C391.323 107.604 391.023 107.64 390.639 107.64C389.439 107.64 388.911 107.232 388.911 106.272V104.484H387.831V106.272C387.831 107.88 388.779 108.54 390.411 108.54C390.999 108.54 391.239 108.492 391.695 108.396V111ZM396.499 111.156C397.303 111.156 398.035 110.736 398.659 110.22H398.695L398.791 111H399.691V106.992C399.691 105.384 399.019 104.316 397.435 104.316C396.391 104.316 395.467 104.784 394.867 105.168L395.299 105.924C395.815 105.576 396.499 105.228 397.255 105.228C398.323 105.228 398.599 106.032 398.599 106.872C395.827 107.184 394.591 107.892 394.591 109.308C394.591 110.484 395.407 111.156 396.499 111.156ZM396.811 110.28C396.163 110.28 395.659 109.98 395.659 109.236C395.659 108.396 396.403 107.856 398.599 107.592V109.416C397.963 109.98 397.447 110.28 396.811 110.28ZM404.34 111.156C405.12 111.156 405.864 110.856 406.452 110.328L405.972 109.596C405.564 109.968 405.036 110.244 404.436 110.244C403.236 110.244 402.42 109.248 402.42 107.748C402.42 106.248 403.284 105.228 404.472 105.228C404.988 105.228 405.384 105.468 405.768 105.804L406.332 105.084C405.864 104.676 405.276 104.316 404.424 104.316C402.756 104.316 401.28 105.576 401.28 107.748C401.28 109.908 402.612 111.156 404.34 111.156Z" fill="white"/>
<rect x="93" y="97" width="20" height="20" rx="5" fill="white" fill-opacity="0.4"/>
<path d="M102.528 113.196C104.754 113.196 105.734 111.6 105.734 109.654V102.626H103.662V109.486C103.662 110.914 103.186 111.404 102.276 111.404C101.688 111.404 101.142 111.082 100.736 110.326L99.322 111.376C100.008 112.58 101.016 113.196 102.528 113.196Z" fill="white"/>
<defs>
<filter id="filter0_bi" x="-14" y="-12" width="528" height="300" filterUnits="userSpaceOnUse" color-interpolation-filters="sRGB">
<feFlood flood-opacity="0" result="BackgroundImageFix"/>
<feGaussianBlur in="BackgroundImage" stdDeviation="45"/>
<feComposite in2="SourceAlpha" operator="in" result="effect1_backgroundBlur"/>
<feBlend mode="normal" in="SourceGraphic" in2="effect1_backgroundBlur" result="shape"/>
<feColorMatrix in="SourceAlpha" type="matrix" values="0 0 0 0 0 0 0 0 0 0 0 0 0 0 0 0 0 0 127 0" result="hardAlpha"/>
<feOffset/>
<feGaussianBlur stdDeviation="30"/>
<feComposite in2="hardAlpha" operator="arithmetic" k2="-1" k3="1"/>
<feColorMatrix type="matrix" values="0 0 0 0 1 0 0 0 0 1 0 0 0 0 1 0 0 0 0.25 0"/>
<feBlend mode="normal" in2="shape" result="effect2_innerShadow"/>
</filter>
</defs>
</svg>
