<svg width="32" height="32" viewBox="0 0 32 32" fill="none" xmlns="http://www.w3.org/2000/svg">
<rect width="32" height="32" rx="16" fill="#EFEFEF"/>
<path d="M22.3111 11.1329C21.8583 10.6497 21.3927 10.1793 20.9095 9.72645C19.8855 8.76805 18.3527 8.75365 17.3287 9.70885C16.5975 10.3921 15.9063 11.1169 15.1975 11.8225C15.1927 11.8273 15.1911 11.8337 15.1879 11.8417C15.1847 11.8529 15.1895 11.8657 15.1991 11.8689C15.2055 11.8721 15.2103 11.8737 15.2151 11.8737C15.2407 11.8753 15.2679 11.8753 15.2935 11.8753C15.9207 11.8673 16.5111 12.0032 17.0599 12.3089C17.1479 12.3584 17.1895 12.3217 17.2439 12.2657C17.6487 11.8593 18.0519 11.4513 18.4599 11.0497C18.8455 10.6689 19.3719 10.6705 19.7543 11.0512C20.1543 11.4481 20.5527 11.8465 20.9479 12.2448C21.3223 12.6225 21.3287 13.1505 20.9527 13.5281C19.7239 14.7681 18.4887 16.0017 17.2487 17.232C17.1431 17.3377 16.9943 17.4208 16.8519 17.4641C16.4983 17.5729 16.2007 17.4481 15.9463 17.192C15.6167 16.8593 15.2855 16.5297 14.9607 16.2049C14.8583 16.1025 14.6935 16.1025 14.5911 16.2049L13.7271 17.0705C13.6247 17.1729 13.6247 17.3376 13.7255 17.4416C14.0775 17.8017 14.4311 18.1697 14.7975 18.5248C15.8135 19.5105 17.4423 19.5041 18.4407 18.5312C18.8471 18.1345 19.2503 17.7345 19.6503 17.3313C20.5447 16.4337 21.4519 15.5505 22.3239 14.6321C23.2279 13.6769 23.2135 12.0961 22.3111 11.1329ZM16.7719 20.1265C16.7575 20.1249 16.7447 20.1249 16.7303 20.1249C16.0935 20.1361 15.4903 20 14.9335 19.6896C14.8423 19.6384 14.8023 19.6833 14.7495 19.7361C14.3479 20.1377 13.9479 20.5424 13.5447 20.9409C13.1447 21.3361 12.6263 21.3329 12.2279 20.9361C11.8551 20.5649 11.4839 20.1921 11.1111 19.8193C10.6471 19.3553 10.6455 18.8657 11.1095 18.4016L14.6695 14.8417C14.7063 14.8049 14.7431 14.7681 14.7815 14.7329C15.0631 14.4785 15.4535 14.4209 15.7815 14.6017C15.8935 14.6625 15.9927 14.7537 16.0839 14.8449C16.4071 15.1617 16.7255 15.4833 17.0407 15.7985C17.1431 15.9009 17.3079 15.9009 17.4103 15.7985C17.7031 15.5057 17.9943 15.2161 18.2951 14.9169C18.3975 14.8145 18.3959 14.6513 18.2935 14.5489C17.8807 14.1377 17.4759 13.7137 17.0327 13.3345C16.0663 12.5041 14.5607 12.5409 13.6295 13.4113C12.9671 14.0321 12.3367 14.6833 11.6951 15.3249C11.0215 16.0001 10.3351 16.6625 9.68393 17.3601C8.76393 18.3441 8.77673 19.8945 9.69833 20.8816C10.1463 21.3617 10.6119 21.8257 11.0903 22.2753C12.1031 23.2273 13.6423 23.2465 14.6583 22.2993C15.3927 21.6129 16.0887 20.8849 16.8023 20.1761C16.8071 20.1713 16.8087 20.1632 16.8103 20.1537C16.8103 20.1409 16.7943 20.1281 16.7719 20.1265Z" fill="black"/>
</svg>
