<svg width="530" height="293" viewBox="0 0 530 293" fill="none" xmlns="http://www.w3.org/2000/svg">
<g clip-path="url(#clip0)">
<path d="M433.961 111.946H326.614V109.734H277.939V111.946H170.151C168.225 111.946 166.378 112.711 165.016 114.072C163.654 115.434 162.889 117.28 162.889 119.206V266.159C162.889 268.084 163.654 269.931 165.016 271.292C166.378 272.654 168.225 273.419 170.151 273.419H433.961C435.887 273.419 437.734 272.654 439.095 271.292C440.457 269.931 441.222 268.084 441.222 266.159V119.205C441.222 117.28 440.457 115.433 439.095 114.072C437.733 112.711 435.886 111.946 433.961 111.946Z" fill="#3F3D56"/>
<path d="M431.487 124.775H172.625V270.764H431.487V124.775Z" fill="#E6E6E6"/>
<path d="M420.597 132.495H183.603V258.684H420.597V132.495Z" fill="white"/>
<path d="M301.834 120.794C303.301 120.794 304.489 119.605 304.489 118.139C304.489 116.673 303.301 115.485 301.834 115.485C300.368 115.485 299.179 116.673 299.179 118.139C299.179 119.605 300.368 120.794 301.834 120.794Z" fill="#6C63FF"/>
<path d="M354.5 141.346H249.7V251.483H354.5V141.346Z" fill="#E6E6E6"/>
<path d="M314.745 172.524C322.437 172.524 328.673 166.29 328.673 158.599C328.673 150.909 322.437 144.674 314.745 144.674C307.053 144.674 300.817 150.909 300.817 158.599C300.817 166.29 307.053 172.524 314.745 172.524Z" fill="#A0616A"/>
<path d="M282.698 251.71L291.693 195.1C292.171 192.09 293.285 189.217 294.961 186.671C296.636 184.125 298.835 181.965 301.41 180.334C303.985 178.704 306.879 177.64 309.897 177.214C312.915 176.789 315.99 177.011 318.916 177.865C324.032 179.345 328.412 182.678 331.202 187.213C333.991 191.748 334.989 197.161 334.001 202.393L324.594 252.948L282.698 251.71Z" fill="#6C63FF"/>
<path d="M318.591 261.839C319.286 261.38 319.873 260.774 320.309 260.063C320.745 259.353 321.02 258.555 321.114 257.727C321.208 256.899 321.12 256.061 320.855 255.27C320.59 254.48 320.155 253.757 319.581 253.153L328.879 235.152L318.408 236.269L311.184 253.193C310.237 254.226 309.701 255.569 309.677 256.97C309.653 258.371 310.144 259.732 311.055 260.797C311.967 261.861 313.237 262.555 314.625 262.747C316.013 262.939 317.424 262.616 318.59 261.839L318.591 261.839Z" fill="#A0616A"/>
<path d="M320.581 249.978C320.067 249.906 319.587 249.678 319.205 249.326L315.648 246.039C315.264 245.683 314.998 245.217 314.888 244.704C314.777 244.192 314.826 243.658 315.029 243.174L322.139 226.326L321.13 193.035C321.425 190.875 322.566 188.921 324.302 187.602C326.038 186.283 328.226 185.708 330.387 186.002C332.547 186.297 334.502 187.438 335.821 189.173C337.14 190.909 337.716 193.097 337.421 195.257L339.146 216.184C339.67 222.535 337.869 228.861 334.077 233.984L322.989 248.97C322.776 249.258 322.505 249.498 322.192 249.674C321.88 249.85 321.535 249.959 321.178 249.992C320.979 250.011 320.779 250.007 320.581 249.978Z" fill="#6C63FF"/>
<path d="M234.537 151.012C234.688 151.832 235.018 152.608 235.502 153.287C235.987 153.965 236.614 154.529 237.34 154.939C238.066 155.349 238.873 155.594 239.704 155.659C240.535 155.723 241.37 155.604 242.15 155.311L255.106 170.89L258.159 160.814L245.389 147.565C244.806 146.291 243.777 145.274 242.496 144.707C241.215 144.14 239.771 144.06 238.436 144.485C237.101 144.909 235.967 145.807 235.249 147.01C234.53 148.212 234.277 149.636 234.537 151.012H234.537Z" fill="#A0616A"/>
<path d="M244.686 157.47C244.953 157.024 245.35 156.671 245.823 156.457L250.238 154.464C250.716 154.249 251.249 154.186 251.765 154.284C252.28 154.382 252.753 154.636 253.119 155.011L265.866 168.126L296.923 180.177C297.852 180.728 298.663 181.456 299.31 182.321C299.957 183.185 300.428 184.169 300.695 185.215C300.961 186.261 301.019 187.35 300.865 188.419C300.711 189.487 300.348 190.515 299.796 191.443C299.244 192.372 298.515 193.182 297.65 193.829C296.785 194.475 295.801 194.945 294.754 195.211C293.708 195.477 292.619 195.534 291.55 195.379C290.481 195.224 289.453 194.86 288.525 194.308L268.577 187.736C262.522 185.743 257.398 181.618 254.157 176.13L244.677 160.08C244.495 159.771 244.38 159.427 244.34 159.071C244.299 158.715 244.334 158.355 244.442 158.013C244.502 157.823 244.584 157.641 244.687 157.47L244.686 157.47Z" fill="#6C63FF"/>
<path opacity="0.1" d="M326.043 206.883L325.476 225.026L315.029 243.176L323.752 222.951L326.043 206.883Z" fill="black"/>
<path d="M305.313 151.62C306.749 153.319 309.181 153.799 311.423 153.996C315.978 154.395 322.601 153.748 327.052 152.72C327.37 155.798 326.504 159.117 328.317 161.65C329.168 158.584 329.662 155.43 329.791 152.252C329.846 150.89 329.824 149.478 329.27 148.226C328.716 146.975 327.507 145.913 326.116 145.902C327.15 145.117 328.361 144.6 329.642 144.394L325.236 142.18L326.367 141.019L318.389 140.531L320.7 139.063C317.222 138.586 313.704 138.475 310.203 138.733C308.577 138.853 306.877 139.082 305.56 140.023C304.243 140.965 303.482 142.837 304.3 144.219C303.276 144.387 302.312 144.814 301.499 145.459C300.687 146.103 300.052 146.945 299.656 147.903C299.068 149.392 299.122 151.045 299.303 152.631C299.604 155.168 300.194 157.662 301.061 160.064" fill="#2F2E41"/>
<path d="M364.855 116.736L237.94 146.03C237.317 146.173 236.662 146.063 236.12 145.724C235.578 145.385 235.192 144.845 235.047 144.222L227.779 112.748C227.636 112.125 227.746 111.47 228.085 110.928C228.424 110.386 228.964 110 229.587 109.856L356.502 80.5622C357.125 80.4191 357.78 80.529 358.322 80.8678C358.864 81.2066 359.25 81.7466 359.395 82.3694L366.663 113.844C366.806 114.467 366.696 115.121 366.357 115.664C366.018 116.206 365.478 116.591 364.855 116.736Z" fill="white"/>
<path d="M364.855 116.736L237.94 146.03C237.317 146.173 236.662 146.063 236.12 145.724C235.578 145.385 235.192 144.845 235.047 144.222L227.779 112.748C227.636 112.125 227.746 111.47 228.085 110.928C228.424 110.386 228.964 110 229.587 109.856L356.502 80.5622C357.125 80.4191 357.78 80.529 358.322 80.8678C358.864 81.2066 359.25 81.7466 359.395 82.3694L366.663 113.844C366.806 114.467 366.696 115.121 366.357 115.664C366.018 116.206 365.478 116.591 364.855 116.736ZM229.804 110.796C229.43 110.882 229.106 111.114 228.902 111.439C228.699 111.765 228.633 112.157 228.719 112.531L235.987 144.006C236.074 144.38 236.305 144.704 236.631 144.907C236.956 145.11 237.349 145.176 237.723 145.09L364.638 115.797C365.012 115.71 365.336 115.479 365.54 115.153C365.743 114.828 365.809 114.435 365.723 114.061L358.455 82.5863C358.368 82.2125 358.137 81.8884 357.811 81.6851C357.486 81.4818 357.093 81.4159 356.719 81.5019L229.804 110.796Z" fill="#E6E6E6"/>
<path d="M273.842 110.698C273.632 110.746 273.434 110.835 273.259 110.96C273.083 111.084 272.934 111.242 272.82 111.424C272.706 111.606 272.628 111.809 272.592 112.021C272.557 112.233 272.563 112.45 272.611 112.66C272.659 112.87 272.748 113.068 272.872 113.243C272.997 113.418 273.155 113.567 273.337 113.682C273.519 113.796 273.722 113.873 273.934 113.909C274.146 113.945 274.364 113.938 274.573 113.89L274.579 113.889L349.801 96.5268C350.224 96.4285 350.59 96.1667 350.82 95.7986C351.049 95.4306 351.123 94.9865 351.026 94.5638C350.928 94.1412 350.667 93.7745 350.299 93.5444C349.931 93.3142 349.487 93.2394 349.064 93.3363L273.842 110.698Z" fill="#E6E6E6"/>
<path d="M276.052 120.27C275.843 120.318 275.645 120.407 275.469 120.532C275.294 120.656 275.145 120.814 275.03 120.996C274.916 121.178 274.839 121.381 274.803 121.593C274.767 121.805 274.773 122.022 274.821 122.232C274.869 122.442 274.958 122.64 275.083 122.815C275.207 122.99 275.365 123.139 275.548 123.253C275.73 123.368 275.933 123.445 276.145 123.481C276.357 123.517 276.574 123.51 276.784 123.462L276.789 123.461L309.158 115.99C309.581 115.893 309.948 115.632 310.179 115.264C310.409 114.896 310.485 114.452 310.388 114.029C310.291 113.605 310.03 113.238 309.662 113.007C309.294 112.777 308.85 112.701 308.426 112.798L308.421 112.799L276.052 120.27Z" fill="#E6E6E6"/>
<path d="M253.278 131.913C258.704 131.913 263.103 127.515 263.103 122.09C263.103 116.665 258.704 112.267 253.278 112.267C247.851 112.267 243.452 116.665 243.452 122.09C243.452 127.515 247.851 131.913 253.278 131.913Z" fill="#6C63FF"/>
<path d="M253.001 127.757C252.68 127.831 252.343 127.8 252.041 127.666L252.022 127.658L248.068 125.863C247.885 125.78 247.719 125.662 247.582 125.514C247.444 125.367 247.337 125.195 247.266 125.006C247.195 124.817 247.162 124.617 247.169 124.415C247.176 124.214 247.222 124.016 247.305 123.832C247.389 123.649 247.508 123.484 247.655 123.346C247.802 123.209 247.975 123.102 248.164 123.031C248.353 122.961 248.554 122.928 248.755 122.935C248.956 122.942 249.155 122.989 249.338 123.072L251.9 124.238L255.494 116.343C255.662 115.974 255.97 115.686 256.351 115.543C256.731 115.401 257.153 115.416 257.522 115.584L257.501 115.635L257.524 115.583C257.893 115.752 258.181 116.06 258.323 116.441C258.465 116.821 258.451 117.242 258.283 117.612L254.056 126.9C253.958 127.114 253.812 127.302 253.629 127.451C253.447 127.599 253.232 127.704 253.003 127.756L253.001 127.757Z" fill="white"/>
<rect x="151.034" y="266.035" width="305.902" height="16.8668" rx="8.43339" fill="#3F3D56"/>
</g>
<path d="M158.632 116.462H157.37V81.8571C157.37 79.2269 156.852 76.6225 155.846 74.1925C154.84 71.7626 153.366 69.5546 151.508 67.6948C149.649 65.835 147.443 64.3597 145.015 63.3532C142.587 62.3466 139.984 61.8286 137.356 61.8286H64.0941C61.4659 61.8286 58.8634 62.3466 56.4352 63.3532C54.007 64.3597 51.8007 65.835 49.9422 67.6948C48.0838 69.5546 46.6096 71.7625 45.6038 74.1925C44.598 76.6224 44.0803 79.2269 44.0803 81.8571V271.704C44.0803 274.334 44.598 276.938 45.6038 279.368C46.6096 281.798 48.0838 284.006 49.9422 285.866C51.8007 287.726 54.007 289.201 56.4351 290.208C58.8633 291.214 61.4658 291.732 64.0941 291.732H137.356C142.664 291.732 147.754 289.622 151.508 285.866C155.261 282.11 157.37 277.016 157.37 271.704V141.095H158.632V116.462Z" fill="#131E3E"/>
<path d="M138.164 67.0394H128.601C129.04 68.1184 129.208 69.289 129.089 70.4482C128.971 71.6075 128.569 72.7196 127.919 73.6868C127.27 74.654 126.393 75.4465 125.365 75.9945C124.337 76.5425 123.191 76.8291 122.026 76.8292H80.0555C78.891 76.8291 77.7445 76.5425 76.7168 75.9945C75.6892 75.4465 74.812 74.654 74.1624 73.6868C73.5129 72.7197 73.1111 71.6075 72.9922 70.4482C72.8734 69.289 73.0413 68.1184 73.4811 67.0394H64.5491C60.5852 67.0394 56.7836 68.6152 53.9807 71.4202C51.1777 74.2252 49.603 78.0295 49.603 81.9964V271.564C49.603 273.529 49.9896 275.474 50.7407 277.288C51.4918 279.103 52.5928 280.752 53.9806 282.141C55.3685 283.53 57.0161 284.631 58.8295 285.383C60.6428 286.135 62.5863 286.522 64.5491 286.522H138.164C140.126 286.522 142.07 286.135 143.883 285.383C145.697 284.631 147.344 283.53 148.732 282.141C150.12 280.752 151.221 279.103 151.972 277.288C152.723 275.474 153.11 273.529 153.11 271.564V81.9964C153.11 80.0322 152.723 78.0873 151.972 76.2726C151.221 74.4579 150.12 72.8091 148.732 71.4202C147.344 70.0313 145.697 68.9296 143.883 68.1779C142.07 67.4262 140.126 67.0394 138.164 67.0394Z" fill="white"/>
<path d="M117.128 120.147H85.5842V127.764H117.128V120.147Z" fill="#6C63FF"/>
<path d="M118.63 152.878H84.0825V160.496H118.63V152.878Z" fill="#E5E5E5"/>
<path d="M139.909 169.241H62.803V176.859H139.909V169.241Z" fill="#E5E5E5"/>
<path d="M139.909 185.604H62.803V193.222H139.909V185.604Z" fill="#E5E5E5"/>
<path d="M117.128 221.872H85.5842V233.414H117.128V221.872Z" fill="#6C63FF"/>
<defs>
<clipPath id="clip0">
<rect width="437.769" height="209.301" fill="white" transform="translate(92.0002 80.5004)"/>
</clipPath>
</defs>
</svg>
