<svg width="68" height="42" viewBox="0 0 68 42" fill="none" xmlns="http://www.w3.org/2000/svg">
<g opacity="0.4" clip-path="url(#clip0)">
<path d="M3.70211 36.1883H2.37952V39.1526H0.71936V31.0551H3.71318C4.665 31.0551 5.39916 31.2683 5.91565 31.6946C6.43215 32.121 6.69039 32.7236 6.69039 33.5021C6.69039 34.0545 6.57049 34.5162 6.33069 34.8869C6.09458 35.254 5.73488 35.5469 5.25159 35.7656L6.99475 39.0747V39.1526H5.21286L3.70211 36.1883ZM2.37952 34.8369H3.71871C4.13559 34.8369 4.4584 34.7312 4.68714 34.5199C4.91587 34.3048 5.03023 34.0101 5.03023 33.6356C5.03023 33.2537 4.92141 32.9534 4.70373 32.7347C4.48976 32.5159 4.15958 32.4065 3.71318 32.4065H2.37952V34.8369ZM15.2986 35.6433H12.1111V37.8123H15.852V39.1526H10.451V31.0551H15.841V32.4065H12.1111V34.3364H15.2986V35.6433ZM22.2965 37.1449L24.1227 31.0551H25.971L23.1654 39.1526H21.4333L18.6386 31.0551H20.4814L22.2965 37.1449ZM35.769 35.2873C35.769 36.0845 35.6288 36.7834 35.3485 37.384C35.0681 37.9847 34.6659 38.4481 34.142 38.7744C33.6219 39.1007 33.0242 39.2638 32.3491 39.2638C31.6814 39.2638 31.0855 39.1025 30.5616 38.78C30.0378 38.4574 29.632 37.9976 29.3442 37.4007C29.0564 36.8001 28.9107 36.1105 28.907 35.3318V34.9314C28.907 34.1343 29.0491 33.4335 29.3332 32.8292C29.6209 32.2211 30.0249 31.7559 30.5451 31.4332C31.0689 31.107 31.6666 30.9439 32.3381 30.9439C33.0095 30.9439 33.6053 31.107 34.1255 31.4332C34.6494 31.7559 35.0533 32.2211 35.3374 32.8292C35.6252 33.4335 35.769 34.1324 35.769 34.9259V35.2873ZM34.0867 34.9203C34.0867 34.0713 33.9355 33.4261 33.633 32.9849C33.3304 32.5437 32.8988 32.3231 32.3381 32.3231C31.781 32.3231 31.3511 32.5418 31.0486 32.9793C30.7462 33.4132 30.593 34.0508 30.5893 34.8925V35.2873C30.5893 36.1142 30.7406 36.7556 31.0431 37.2116C31.3456 37.6677 31.781 37.8957 32.3491 37.8957C32.9062 37.8957 33.3341 37.6769 33.633 37.2394C33.9318 36.7982 34.083 36.1568 34.0867 35.3152V34.9203ZM41.638 31.0551L43.7077 36.928L45.7663 31.0551H47.9466V39.1526H46.2809V36.9391L46.4469 33.1184L44.2721 39.1526H43.1321L40.9629 33.1239L41.1289 36.9391V39.1526H39.4687V31.0551H41.638ZM56.7375 35.6433H53.55V37.8123H57.2908V39.1526H51.8898V31.0551H57.2798V32.4065H53.55V34.3364H56.7375V35.6433ZM60.7582 39.1526V31.0551H63.2373C63.9457 31.0551 64.5784 31.2164 65.1354 31.539C65.6962 31.8578 66.1334 32.3138 66.4469 32.9071C66.7605 33.4966 66.9173 34.1677 66.9173 34.9203V35.2929C66.9173 36.0456 66.7624 36.7148 66.4525 37.3006C66.1462 37.8864 65.7128 38.3406 65.152 38.6631C64.5912 38.9857 63.9586 39.1489 63.2539 39.1526H60.7582ZM62.4183 32.4065V37.8123H63.2207C63.87 37.8123 64.3662 37.5991 64.7093 37.1727C65.0524 36.7463 65.2276 36.1364 65.2351 35.3429V34.9148C65.2351 34.0916 65.0653 33.4687 64.7259 33.0461C64.3865 32.6197 63.8903 32.4065 63.2373 32.4065H62.4183Z" fill="white"/>
<path d="M27.2709 9.94075C27.3618 8.79813 27.5245 8.14443 27.9792 7.09326L25.1459 10.6526L27.9792 14.2119C27.5245 13.1607 27.3618 12.507 27.2709 11.3645C27.2267 10.8102 27.2267 10.4949 27.2709 9.94075Z" fill="white"/>
<path d="M27.9792 7.09327C28.2558 6.81527 28.6875 6.38141 28.6875 6.38141M28.6875 14.9238C28.6875 14.9238 28.2558 14.4899 27.9792 14.2119L28.6875 14.9238ZM27.9792 7.09327C27.5245 8.14444 27.3618 8.79815 27.2709 9.94076C27.2267 10.4949 27.2267 10.8102 27.2709 11.3645C27.3618 12.507 27.5245 13.1607 27.9792 14.2119V7.09327ZM27.9792 7.09327C26.8727 8.48329 25.1459 10.6526 25.1459 10.6526C25.1459 10.6526 26.8727 12.8219 27.9792 14.2119V7.09327Z" stroke="white"/>
<path d="M28.6875 2.11019C26.3034 2.95582 21.25 9.22896 19.8334 10.6527C21.25 12.0764 26.3973 18.3825 28.6875 19.1949C34.7084 21.3307 41.7917 18.483 41.7917 10.6525C41.7917 2.82215 34.7084 -0.0253808 28.6875 2.11019Z" stroke="white" stroke-width="3"/>
<path d="M42.8541 4.24579L48.875 10.6526L42.8541 17.0594C42.8541 17.0594 44.3476 14.5681 44.8304 12.0763L46.0416 10.6526L44.8304 9.22887C44.3476 6.73699 42.8541 4.24579 42.8541 4.24579Z" fill="white" stroke="white"/>
</g>
<defs>
<clipPath id="clip0">
<rect width="68" height="42" fill="white"/>
</clipPath>
</defs>
</svg>
