<svg width="32" height="32" viewBox="0 0 32 32" fill="none" xmlns="http://www.w3.org/2000/svg">
<rect width="32" height="32" rx="16" fill="#EFEFEF"/>
<path d="M22.9994 11.656C22.4842 11.8848 21.9306 12.0384 21.3498 12.1088C21.9434 11.7536 22.3978 11.1904 22.6122 10.52C22.057 10.8496 21.441 11.088 20.7882 11.2176C20.265 10.6592 19.5178 10.3104 18.6922 10.3104C17.105 10.3104 15.8186 11.5952 15.8186 13.1824C15.8186 13.408 15.8442 13.6272 15.8922 13.8368C13.505 13.7168 11.3882 12.5744 9.9722 10.8352C9.7258 11.2592 9.5834 11.7536 9.5834 12.28C9.5834 13.2768 10.0906 14.1552 10.8602 14.6704C10.3898 14.656 9.9466 14.5264 9.5594 14.3104V14.3472C9.5594 15.7392 10.5498 16.8992 11.8634 17.1632C11.6234 17.2288 11.369 17.264 11.1066 17.264C10.921 17.264 10.7418 17.2464 10.5674 17.2128C10.9322 18.3536 11.993 19.184 13.249 19.208C12.2666 19.9776 11.0298 20.4368 9.6826 20.4368C9.4506 20.4368 9.2234 20.424 8.9978 20.3968C10.2698 21.2112 11.7786 21.6864 13.401 21.6864C18.6842 21.6864 21.5738 17.3104 21.5738 13.5152C21.5738 13.3904 21.5706 13.2672 21.5658 13.144C22.1274 12.7376 22.6154 12.232 22.9994 11.656Z" fill="black"/>
</svg>
