<svg width="32" height="32" viewBox="0 0 32 32" fill="none" xmlns="http://www.w3.org/2000/svg">
<rect width="32" height="32" rx="16" fill="#EFEFEF"/>
<path d="M15.8509 19.9584H16.6877C16.6877 19.9584 16.9405 19.9312 17.0701 19.792C17.1885 19.664 17.1853 19.424 17.1853 19.424C17.1853 19.424 17.1693 18.3008 17.6893 18.136C18.2029 17.9728 18.8621 19.2208 19.5613 19.7008C20.0893 20.064 20.4925 19.984 20.4925 19.984L22.3629 19.9584C22.3629 19.9584 23.3405 19.8976 22.8765 19.1296C22.8381 19.0672 22.6061 18.56 21.4861 17.5216C20.3133 16.4336 20.4701 16.6096 21.8829 14.728C22.7421 13.5823 23.0861 12.8815 22.9789 12.5823C22.8765 12.2975 22.2445 12.3727 22.2445 12.3727L20.1389 12.3855C20.1389 12.3855 19.9821 12.3647 19.8669 12.4335C19.7533 12.5007 19.6813 12.6591 19.6813 12.6591C19.6813 12.6591 19.3485 13.5455 18.9037 14.3007C17.9661 15.8928 17.5917 15.976 17.4381 15.8784C17.0813 15.648 17.1709 14.9536 17.1709 14.4592C17.1709 12.9167 17.4045 12.2735 16.7149 12.1071C16.4861 12.0511 16.3181 12.0159 15.7325 12.0095C14.9821 12.0015 14.3453 12.0111 13.9853 12.1887C13.7453 12.3055 13.5613 12.5679 13.6733 12.5823C13.8125 12.6015 14.1277 12.6671 14.2941 12.8943C14.5101 13.1871 14.5021 13.8463 14.5021 13.8463C14.5021 13.8463 14.6253 15.6624 14.2125 15.888C13.9293 16.0432 13.5389 15.7264 12.7037 14.2831C12.2749 13.5439 11.9517 12.7263 11.9517 12.7263C11.9517 12.7263 11.8893 12.5743 11.7789 12.4911C11.6445 12.3919 11.4557 12.3599 11.4557 12.3599L9.45565 12.3727C9.45565 12.3727 9.15485 12.3807 9.04445 12.5119C8.94685 12.6287 9.03645 12.8687 9.03645 12.8687C9.03645 12.8687 10.6029 16.5328 12.3757 18.3792C14.0045 20.0688 15.8509 19.9584 15.8509 19.9584Z" fill="black"/>
</svg>
